<svg width="13" height="14" viewBox="0 0 13 14" fill="none" xmlns="http://www.w3.org/2000/svg">
<path d="M3.86245 0.936035C1.82751 0.936035 0.171753 2.59428 0.171753 4.63158V9.90966C0.171753 11.9467 1.82849 13.6042 3.86393 13.6042H9.1372C11.1724 13.6042 12.8284 11.946 12.8284 9.90867V4.6301C12.8284 2.59331 11.1716 0.936035 9.13621 0.936035H3.86245ZM10.2971 2.96294C10.5765 2.96294 10.8033 3.18996 10.8033 3.46967C10.8033 3.74938 10.5765 3.9764 10.2971 3.9764C10.0176 3.9764 9.79079 3.74938 9.79079 3.46967C9.79079 3.18996 10.0176 2.96294 10.2971 2.96294ZM6.50007 3.9764C8.31503 3.9764 9.79079 5.45351 9.79079 7.27013C9.79079 9.08674 8.31478 10.5639 6.50007 10.5639C4.68511 10.5639 3.20934 9.08649 3.20934 7.27013C3.20934 5.45376 4.68511 3.9764 6.50007 3.9764ZM6.50007 4.98985C5.24175 4.98985 4.22187 6.01065 4.22187 7.27013C4.22187 8.5296 5.24175 9.5504 6.50007 9.5504C7.75839 9.5504 8.77826 8.5296 8.77826 7.27013C8.77826 6.01065 7.75839 4.98985 6.50007 4.98985Z" fill="#D23939"/>
</svg>
