<svg width="17" height="15" viewBox="0 0 17 15" fill="none" xmlns="http://www.w3.org/2000/svg">
<path d="M16.5572 2.30978C15.9635 2.58609 15.3252 2.77029 14.6517 2.85734C15.3365 2.43041 15.8631 1.74945 16.1103 0.944898C15.4697 1.33945 14.7601 1.62912 14.0049 1.78183C13.4019 1.11038 12.5418 0.693848 11.589 0.693848C9.75851 0.693848 8.27507 2.23878 8.27507 4.14349C8.27507 4.41296 8.30505 4.6756 8.36162 4.93051C5.608 4.78523 3.16577 3.41025 1.53186 1.32341C1.24479 1.83323 1.0833 2.43041 1.0833 3.06056C1.0833 4.25817 1.66706 5.31229 2.55712 5.93353C2.01381 5.916 1.50245 5.75735 1.05473 5.50273C1.05473 5.51313 1.05473 5.52858 1.05473 5.54314C1.05473 7.21671 2.19736 8.61012 3.71191 8.92742C3.43502 9.00704 3.14258 9.05131 2.84108 9.05131C2.62698 9.05131 2.41853 9.02576 2.21659 8.98773C2.63829 10.3553 3.86181 11.355 5.31131 11.3844C4.17716 12.3081 2.74888 12.8613 1.19558 12.8613C0.927176 12.8613 0.664994 12.8453 0.40564 12.8123C1.87267 13.7883 3.61518 14.3605 5.48553 14.3605C11.5802 14.3605 14.9142 9.10301 14.9142 4.5422C14.9142 4.39276 14.9097 4.24391 14.9029 4.09685C15.5537 3.61436 16.1142 3.0053 16.5572 2.30978Z" fill="#00B2FF"/>
</svg>
